TITLE ""
FILE "Step2_Track54.mp3" MP3
  TRACK 01 AUDIO
    TITLE "Step2_Track54_01"
    INDEX 01 00:00:00
  TRACK 02 AUDIO
    TITLE "Step2_Track54_02"
    INDEX 01 00:00:24
  TRACK 03 AUDIO
    TITLE "Step2_Track54_03"
    INDEX 01 00:02:07
  TRACK 04 AUDIO
    TITLE "Step2_Track54_04"
    INDEX 01 00:02:66
  TRACK 05 AUDIO
    TITLE "Step2_Track54_05"
    INDEX 01 00:03:65
  TRACK 06 AUDIO
    TITLE "Step2_Track54_06"
    INDEX 01 00:04:12
  TRACK 07 AUDIO
    TITLE "Step2_Track54_07"
    INDEX 01 00:06:21
  TRACK 08 AUDIO
    TITLE "Step2_Track54_08"
    INDEX 01 00:06:60
  TRACK 09 AUDIO
    TITLE "Step2_Track54_09"
    INDEX 01 00:07:53
  TRACK 10 AUDIO
    TITLE "Step2_Track54_10"
    INDEX 01 00:07:63
  TRACK 11 AUDIO
    TITLE "Step2_Track54_11"
    INDEX 01 00:10:46
  TRACK 12 AUDIO
    TITLE "Step2_Track54_12"
    INDEX 01 00:11:02
  TRACK 13 AUDIO
    TITLE "Step2_Track54_13"
    INDEX 01 00:11:73
  TRACK 14 AUDIO
    TITLE "Step2_Track54_14"
    INDEX 01 00:11:75
  TRACK 15 AUDIO
    TITLE "Step2_Track54_15"
    INDEX 01 00:13:54
  TRACK 16 AUDIO
    TITLE "Step2_Track54_16"
    INDEX 01 00:14:26
  TRACK 17 AUDIO
    TITLE "Step2_Track54_17"
    INDEX 01 00:15:20
  TRACK 18 AUDIO
    TITLE "Step2_Track54_18"
    INDEX 01 00:15:33
  TRACK 19 AUDIO
    TITLE "Step2_Track54_19"
    INDEX 01 00:18:40
  TRACK 20 AUDIO
    TITLE "Step2_Track54_20"
    INDEX 01 00:18:69
  TRACK 21 AUDIO
    TITLE "Step2_Track54_21"
    INDEX 01 00:19:63
  TRACK 22 AUDIO
    TITLE "Step2_Track54_22"
    INDEX 01 00:19:72
  TRACK 23 AUDIO
    TITLE "Step2_Track54_23"
    INDEX 01 00:21:50
  TRACK 24 AUDIO
    TITLE "Step2_Track54_24"
    INDEX 01 00:22:10
  TRACK 25 AUDIO
    TITLE "Step2_Track54_25"
    INDEX 01 00:23:13
  TRACK 26 AUDIO
    TITLE "Step2_Track54_26"
    INDEX 01 00:23:25
  TRACK 27 AUDIO
    TITLE "Step2_Track54_27"
    INDEX 01 00:25:71
  TRACK 28 AUDIO
    TITLE "Step2_Track54_28"
    INDEX 01 00:26:16
  TRACK 29 AUDIO
    TITLE "Step2_Track54_29"
    INDEX 01 00:27:23
  TRACK 30 AUDIO
    TITLE "Step2_Track54_30"
    INDEX 01 00:27:35
  TRACK 31 AUDIO
    TITLE "Step2_Track54_31"
    INDEX 01 00:29:61
  TRACK 32 AUDIO
    TITLE "Step2_Track54_32"
    INDEX 01 00:30:17
  TRACK 33 AUDIO
    TITLE "Step2_Track54_33"
    INDEX 01 00:31:09
  TRACK 34 AUDIO
    TITLE "Step2_Track54_34"
    INDEX 01 00:31:19
  TRACK 35 AUDIO
    TITLE "Step2_Track54_35"
    INDEX 01 00:33:12
  TRACK 36 AUDIO
    TITLE "Step2_Track54_36"
    INDEX 01 00:33:55
  TRACK 37 AUDIO
    TITLE "Step2_Track54_37"
    INDEX 01 00:34:58
  TRACK 38 AUDIO
    TITLE "Step2_Track54_38"
    INDEX 01 00:34:68
  TRACK 39 AUDIO
    TITLE "Step2_Track54_39"
    INDEX 01 00:36:57
  TRACK 40 AUDIO
    TITLE "Step2_Track54_40"
    INDEX 01 00:37:09
  TRACK 41 AUDIO
    TITLE "Step2_Track54_41"
    INDEX 01 00:38:05
  TRACK 42 AUDIO
    TITLE "Step2_Track54_42"
    INDEX 01 00:38:17
  TRACK 43 AUDIO
    TITLE "Step2_Track54_43"
    INDEX 01 00:40:67
